<mxfile host="app.diagrams.net" modified="2024-03-03T23:31:06.428Z" agent="Mozilla/5.0 (Macintosh; Intel Mac OS X 10_15_7) AppleWebKit/537.36 (KHTML, like Gecko) Chrome/122.0.0.0 Safari/537.36" version="24.0.1" etag="5ewRDkEGBwh1gbDrv2YS" type="github">
  <diagram name="Page-1" id="55tlbTdb833WV-eZrI8h">
    <mxGraphModel>
      <root>
        <mxCell id="0" />
        <mxCell id="1" parent="0" />
      </root>
    </mxGraphModel>
  </diagram>
</mxfile>
